# xmcd
# 
# Track frame offsets:
#     150
#     21830
#     42822
#     62262
#     84570
#     96965
#     115895
#     131917
#     152990
# 
# Disc length: 2294
# 
# Revision: 11
# Processed by: cddbd v1.5.2PL0 Copyright (c) Steve Scherf et al.
# Submitted via: fre:ac v1.0.31
# 
DISCID=7008f409
DTITLE=中島 みゆき - Oiro Naosi
DYEAR=1985
DGENRE=J-POP
TTITLE0=01-ひとりぼっちで踊らせて
TTITLE1=02-すずめ
TTITLE2=03-最愛
TTITLE3=04-さよならの鐘
TTITLE4=05-海と宝石
TTITLE5=06-カム・フラージュ
TTITLE6=07-煙草
TTITLE7=08-美貌の都
TTITLE8=09-かもめはかもめ
EXTD=YEAR: 1985\nアルバム名：御色なおし
EXTT0=
EXTT1=
EXTT2=
EXTT3=
EXTT4=
EXTT5=
EXTT6=
EXTT7=
EXTT8=
PLAYORDER=
